<svg width="434" height="434" xmlns="http://www.w3.org/2000/svg">
  <ellipse stroke="null" ry="216" rx="216" id="svg_23" cy="217" cx="217" stroke-width="null" fill="#7dc6cd"/>
  <path id="svg_4" d="m201.509181,57.786163c35.29,-3.55 71.7,5.15 101.49,24.4c32.59,20.69 57.28,53.58 67.76,90.76c12.81,43.63 5.55,92.56 -19.27,130.64c-22.84,35.42 -60,61.47 -101.39,69.89c-39.95,8.69 -83.16,1.08 -117.72,-20.78c-29.95,-18.61 -53.45,-47.4 -65.54,-80.54c-14.97,-40.22 -12.78,-86.58 6.33,-125.05c13.42,-28.07 35.55,-51.82 62.25,-67.72c20.13,-11.86 42.8,-19.47 66.09,-21.6z" fill="#fcfcfc"/>
  <g id="svg_2">
   <path id="svg_5" d="m114.78,107.409995c24.19,-22.48 55.9,-36.75 88.82,-39.65c-22.33,22.64 -40.7,49.35 -53.14,78.64c-14.62,-10.13 -26.64,-23.73 -35.68,-38.99z" fill="#7dc6cd"/>
   <path id="svg_6" d="m230.46,67.769995c32.59,2.93 64.11,16.84 88.06,39.16c-8.57,15.45 -20.65,28.89 -34.96,39.23c-12.47,-29.21 -30.8,-55.82 -53.1,-78.39z" fill="#7dc6cd"/>
   <path id="svg_7" d="m159.27,151.999995c12.04,-29.28 30.61,-55.66 52.72,-78.22c0.06,30.99 0.05,61.97 0.01,92.95c-18.41,-0.61 -36.76,-5.48 -52.73,-14.73z" fill="#7dc6cd"/>
   <path id="svg_8" d="m222.1,73.699995c22.17,22.43 40.45,48.88 52.7,77.99c-15.85,9.51 -34.32,14.23 -52.7,15.05c-0.14,-31.01 -0.15,-62.03 0,-93.04z" fill="#7dc6cd"/>
   <path id="svg_10" d="m287.11,155.429995c15.81,-10.7 28.87,-25.11 38.78,-41.37c24.91,26.34 39.95,61.8 41.01,98.09c-22.87,0.1 -45.74,0.09 -68.6,0.02c-0.69,-19.35 -4.5,-38.57 -11.19,-56.74z" fill="#7dc6cd"/>
   <path id="svg_11" d="m222.05,176.719995c19.72,-0.58 39.16,-6.15 56.44,-15.61c5.55,16.52 9.21,33.72 9.8,51.17c-22.08,-0.23 -44.17,0.09 -66.25,-0.14c-0.06,-11.81 -0.05,-23.61 0.01,-35.42z" fill="#7dc6cd"/>
   <path id="svg_14" d="m67.09,222.259995c22.91,-0.1 45.82,-0.08 68.73,-0.01c0.64,19.17 4.18,38.29 10.78,56.31c-15.36,11.19 -28.92,24.96 -38.99,41.13c-24.72,-26.15 -39.42,-61.46 -40.52,-97.43z" fill="#7dc6cd"/>
   <path id="svg_15" d="m145.86,222.249995c22.03,-0.08 44.07,-0.07 66.11,-0.01c0.08,11.77 0.13,23.54 -0.03,35.31c-19.75,0.76 -39.32,6 -56.57,15.7c-5.58,-16.42 -9.05,-33.64 -9.51,-51z" fill="#7dc6cd"/>
   <path id="svg_16" d="m222.05,222.229995c22.05,0.01 44.11,-0.14 66.17,0.06c-0.52,17.39 -3.98,34.64 -9.61,51.09c-17.26,-9.6 -36.77,-15.22 -56.55,-15.7c-0.1,-11.82 -0.04,-23.63 -0.01,-35.45z" fill="#7dc6cd"/>
   <path id="svg_17" d="m298.22,222.089995c22.89,0.34 45.8,-0.11 68.69,0.21c-1.2,36.14 -15.93,71.74 -41.01,97.85c-9.74,-16.2 -22.92,-30.3 -38.41,-41.12c6.11,-18.38 10.34,-37.51 10.73,-56.94z" fill="#7dc6cd"/>
   <path id="svg_19" d="m158.71,282.449995c16.36,-9.01 34.73,-14.34 53.44,-14.84c-0.32,32.31 0.01,64.61 -0.16,96.91c-22.59,-23.75 -41.12,-51.58 -53.28,-82.07z" fill="#7dc6cd"/>
   <path id="svg_20" d="m222.05,267.629995c18.55,0.63 36.91,5.75 53.01,14.99c-2,6.45 -5.22,12.43 -8.17,18.48c-11.75,23.16 -26.81,44.68 -44.89,63.36c0.05,-32.28 -0.05,-64.55 0.05,-96.83z" fill="#7dc6cd"/>
   <path id="svg_21" d="m114.79,326.989995c8.93,-15.15 20.91,-28.58 35.29,-38.75c11.59,28.7 28.82,54.99 49.56,77.91c-31.55,-3.5 -61.55,-17.69 -84.85,-39.16z" fill="#7dc6cd"/>
   <path id="svg_22" d="m234.23,366.239995c20.83,-22.85 37.87,-49.2 49.63,-77.82c14.26,10.19 26.17,23.64 34.7,38.94c-22.95,21.61 -53.1,35.12 -84.33,38.88z" fill="#7dc6cd"/>
   <path id="svg_9" d="m67.11,212.319995c0.98,-36.1 15.82,-71.52 40.56,-97.78c9.93,16.27 23.38,30.49 39.22,41.12c-6.66,18.09 -10.41,37.22 -11.11,56.49c-22.89,0.23 -45.78,-0.13 -68.67,0.17z" fill="#7dc6cd"/>
   <path id="svg_12" d="m145.86,212.229995c0.54,-17.37 4,-34.63 9.87,-50.96c17.16,9.59 36.61,14.81 56.24,15.53c0.2,11.84 -0.12,23.67 0.14,35.51c-22.08,-0.22 -44.17,-0.05 -66.25,-0.08z" fill="#7dc6cd"/>
  </g>
</svg>
